<svg width="200" height="200" viewBox="0 0 200 200" xmlns="http://www.w3.org/2000/svg">
  <!-- 背景圆形 -->
  <circle cx="100" cy="100" r="95" fill="#f8fafc" stroke="#3b82f6" stroke-width="2"/>
  
  <!-- 古典建筑柱子 -->
  <rect x="60" y="70" width="12" height="60" fill="#64748b" rx="1"/>
  <rect x="80" y="70" width="12" height="60" fill="#64748b" rx="1"/>
  <rect x="100" y="70" width="12" height="60" fill="#64748b" rx="1"/>
  <rect x="120" y="70" width="12" height="60" fill="#64748b" rx="1"/>
  
  <!-- 建筑顶部 -->
  <rect x="55" y="65" width="90" height="8" fill="#475569" rx="2"/>
  <rect x="50" y="60" width="100" height="6" fill="#334155" rx="2"/>
  
  <!-- 树叶拱门（左侧） -->
  <path d="M 40 80 Q 30 60, 45 50 Q 55 45, 65 55 Q 70 65, 60 75" fill="#f59e0b" opacity="0.8"/>
  <path d="M 35 90 Q 25 70, 40 60 Q 50 55, 60 65 Q 65 75, 55 85" fill="#dc2626" opacity="0.7"/>
  
  <!-- 树叶拱门（右侧） -->
  <path d="M 160 80 Q 170 60, 155 50 Q 145 45, 135 55 Q 130 65, 140 75" fill="#f59e0b" opacity="0.8"/>
  <path d="M 165 90 Q 175 70, 160 60 Q 150 55, 140 65 Q 135 75, 145 85" fill="#dc2626" opacity="0.7"/>
  
  <!-- 地面落叶 -->
  <ellipse cx="70" cy="135" rx="8" ry="3" fill="#f97316" opacity="0.6" transform="rotate(15 70 135)"/>
  <ellipse cx="100" cy="140" rx="6" ry="2" fill="#dc2626" opacity="0.5" transform="rotate(-20 100 140)"/>
  <ellipse cx="130" cy="138" rx="7" ry="3" fill="#f59e0b" opacity="0.7" transform="rotate(30 130 138)"/>
  
  <!-- 装饰性元素 -->
  <circle cx="85" cy="85" r="2" fill="#fbbf24" opacity="0.6"/>
  <circle cx="115" cy="82" r="1.5" fill="#f59e0b" opacity="0.7"/>
  
  <!-- 外圈装饰 -->
  <circle cx="100" cy="100" r="90" fill="none" stroke="#3b82f6" stroke-width="1" opacity="0.3"/>
</svg>